<svg width="1551" height="1024" viewBox="0 0 1551 1024" fill="none" xmlns="http://www.w3.org/2000/svg">
<rect width="1551" height="1024" rx="16" fill="#F6F7F9"/>
<mask id="path-2-inside-1_3633_25668" fill="white">
<path d="M0 0H240V1024H0V0Z"/>
</mask>
<path d="M0 0H240V1024H0V0Z" fill="white"/>
<path d="M240 0H239V1024H240H241V0H240Z" fill="#E4E8EF" mask="url(#path-2-inside-1_3633_25668)"/>
<g clip-path="url(#clip0_3633_25668)">
<mask id="mask0_3633_25668" style="mask-type:luminance" maskUnits="userSpaceOnUse" x="24" y="26" width="32" height="26">
<path d="M56 26H24V52H56V26Z" fill="white"/>
</mask>
<g mask="url(#mask0_3633_25668)">
<mask id="mask1_3633_25668" style="mask-type:luminance" maskUnits="userSpaceOnUse" x="-191" y="-200" width="284" height="399">
<path d="M92.8365 -199.177H-190.844V198.343H92.8365V-199.177Z" fill="white"/>
</mask>
<g mask="url(#mask1_3633_25668)">
<mask id="mask2_3633_25668" style="mask-type:luminance" maskUnits="userSpaceOnUse" x="-191" y="-200" width="284" height="399">
<path d="M92.8365 -199.177H-190.844V198.343H92.8365V-199.177Z" fill="white"/>
</mask>
<g mask="url(#mask2_3633_25668)">
<mask id="mask3_3633_25668" style="mask-type:luminance" maskUnits="userSpaceOnUse" x="38" y="31" width="18" height="21">
<path d="M44.825 31.5931C43.9652 31.5931 43.1799 31.9284 42.8019 32.4564L39.3586 37.2682C38.8391 37.9939 38.8499 38.8446 39.3879 39.564L47.2102 50.0264C47.8833 50.9263 49.2366 51.4922 50.7141 51.4922H55.4654L45.6919 38.4202L50.5783 31.5918H44.825V31.5931Z" fill="white"/>
</mask>
<g mask="url(#mask3_3633_25668)">
<path d="M55.4661 31.5933H38.8398V51.493H55.4661V31.5933Z" fill="url(#paint0_linear_3633_25668)"/>
</g>
<mask id="mask4_3633_25668" style="mask-type:luminance" maskUnits="userSpaceOnUse" x="38" y="31" width="18" height="21">
<path d="M44.825 31.5931C43.9652 31.5931 43.1799 31.9284 42.8019 32.4564L39.3586 37.2682C38.8391 37.9939 38.8499 38.8446 39.3879 39.564L47.2102 50.0264C47.8833 50.9263 49.2366 51.4922 50.7141 51.4922H55.4654L45.6919 38.4202L50.5783 31.5918H44.825V31.5931Z" fill="white"/>
</mask>
<g mask="url(#mask4_3633_25668)">
<path d="M49.7091 23.7583L29.2832 38.4839L44.5935 59.3325L65.0194 44.6069L49.7091 23.7583Z" fill="url(#paint1_linear_3633_25668)"/>
</g>
<mask id="mask5_3633_25668" style="mask-type:luminance" maskUnits="userSpaceOnUse" x="38" y="31" width="13" height="20">
<path d="M44.825 31.5929C43.9652 31.5929 43.1799 31.9283 42.8019 32.4563L39.3586 37.2681C38.8391 37.9938 38.8499 38.8445 39.3879 39.5638L47.2102 50.0262C43.315 44.8152 43.011 42.169 45.6926 38.4207L50.579 31.5923H44.8257L44.825 31.5929Z" fill="white"/>
</mask>
<g mask="url(#mask5_3633_25668)">
<path d="M50.5791 31.5928H38.8398V50.0267H50.5791V31.5928Z" fill="url(#paint2_linear_3633_25668)"/>
</g>
<mask id="mask6_3633_25668" style="mask-type:luminance" maskUnits="userSpaceOnUse" x="38" y="31" width="13" height="20">
<path d="M44.825 31.5929C43.9652 31.5929 43.1799 31.9283 42.8019 32.4563L39.3586 37.2681C38.8391 37.9938 38.8499 38.8445 39.3879 39.5638L47.2102 50.0262C43.315 44.8152 43.011 42.169 45.6926 38.4207L50.579 31.5923H44.8257L44.825 31.5929Z" fill="white"/>
</mask>
<g mask="url(#mask6_3633_25668)">
<path d="M50.5791 31.5928H38.8398V50.0267H50.5791V31.5928Z" fill="url(#paint3_linear_3633_25668)"/>
</g>
<mask id="mask7_3633_25668" style="mask-type:luminance" maskUnits="userSpaceOnUse" x="38" y="31" width="10" height="12">
<path d="M44.825 31.5929C43.9652 31.5929 43.1799 31.9283 42.8019 32.4563L39.3586 37.2681C38.8391 37.9938 38.8499 38.8445 39.3879 39.5638L41.5953 42.5151C41.4442 40.8244 42.0421 39.2821 43.3258 37.4885L47.5449 31.5923H44.8257L44.825 31.5929Z" fill="white"/>
</mask>
<g mask="url(#mask7_3633_25668)">
<path d="M40.5343 28.1746L34.4727 40.3857L45.8486 45.9296L51.9102 33.7184L40.5343 28.1746Z" fill="url(#paint4_linear_3633_25668)"/>
</g>
<mask id="mask8_3633_25668" style="mask-type:luminance" maskUnits="userSpaceOnUse" x="24" y="26" width="21" height="25">
<path d="M24.4141 26.5679L36.3337 42.5109L30.3739 50.8393H37.3911C38.4403 50.8393 39.3977 50.4307 39.8586 49.7859L44.0585 43.9174C44.6921 43.032 44.6787 41.995 44.0228 41.1177L34.4826 28.3564C33.6616 27.2588 32.0114 26.5679 30.2088 26.5679H24.4141Z" fill="white"/>
</mask>
<g mask="url(#mask8_3633_25668)">
<path d="M44.6921 26.5679H24.4141V50.8393H44.6921V26.5679Z" fill="url(#paint5_linear_3633_25668)"/>
</g>
<mask id="mask9_3633_25668" style="mask-type:luminance" maskUnits="userSpaceOnUse" x="24" y="26" width="21" height="25">
<path d="M24.4141 26.5679L36.3337 42.5109L30.3739 50.8393H37.3911C38.4403 50.8393 39.3977 50.4307 39.8586 49.7859L44.0585 43.9174C44.6921 43.032 44.6787 41.995 44.0228 41.1177L34.4826 28.3564C33.6616 27.2588 32.0114 26.5679 30.2088 26.5679H24.4141Z" fill="white"/>
</mask>
<g mask="url(#mask9_3633_25668)">
<path d="M29.7645 17.7122L13.6172 44.4341L39.341 59.6941L55.4883 32.9722L29.7645 17.7122Z" fill="url(#paint6_linear_3633_25668)"/>
</g>
<mask id="mask10_3633_25668" style="mask-type:luminance" maskUnits="userSpaceOnUse" x="30" y="28" width="15" height="23">
<path d="M36.3328 42.5109L30.373 50.8393H37.3903C38.4395 50.8393 39.3969 50.4307 39.8577 49.7859L44.0576 43.9174C44.6912 43.032 44.6778 41.995 44.022 41.1177L34.4824 28.3564C39.2337 34.7118 39.6047 37.9397 36.3335 42.5109" fill="white"/>
</mask>
<g mask="url(#mask10_3633_25668)">
<path d="M44.6919 28.3564H30.373V50.8393H44.6919V28.3564Z" fill="url(#paint7_linear_3633_25668)"/>
</g>
<mask id="mask11_3633_25668" style="mask-type:luminance" maskUnits="userSpaceOnUse" x="-191" y="-200" width="284" height="399">
<path d="M92.8365 -199.177H-190.844V198.343H92.8365V-199.177Z" fill="white"/>
</mask>
<g mask="url(#mask11_3633_25668)">
<g style="mix-blend-mode:overlay">
<mask id="mask12_3633_25668" style="mask-type:luminance" maskUnits="userSpaceOnUse" x="30" y="28" width="15" height="23">
<path d="M44.5236 28.3564H30.373V50.8393H44.5236V28.3564Z" fill="white"/>
</mask>
<g mask="url(#mask12_3633_25668)">
<mask id="mask13_3633_25668" style="mask-type:luminance" maskUnits="userSpaceOnUse" x="30" y="28" width="15" height="23">
<path d="M34.4818 28.3564C39.2337 34.7118 39.604 37.9397 36.3329 42.5109L30.373 50.8393H37.3903C38.4395 50.8393 39.3969 50.4307 39.8584 49.7859L44.0583 43.9174C44.6919 43.0326 44.6785 41.995 44.022 41.1177L34.4818 28.3564Z" fill="white"/>
</mask>
<g mask="url(#mask13_3633_25668)">
<path d="M31.7306 24.1986L23.7227 48.7056L43.3325 54.9962L51.3405 30.4892L31.7306 24.1986Z" fill="url(#paint8_linear_3633_25668)"/>
</g>
</g>
</g>
<g opacity="0.42">
<mask id="mask14_3633_25668" style="mask-type:luminance" maskUnits="userSpaceOnUse" x="34" y="37" width="11" height="14">
<path d="M44.524 37.5171H34.0742V50.8392H44.524V37.5171Z" fill="white"/>
</mask>
<g mask="url(#mask14_3633_25668)">
<mask id="mask15_3633_25668" style="mask-type:luminance" maskUnits="userSpaceOnUse" x="34" y="37" width="11" height="14">
<path d="M44.0223 41.117L41.3305 37.5171C41.5147 39.5798 40.7855 41.4605 39.22 43.6483L34.0742 50.8392H37.3907C38.4399 50.8392 39.3972 50.4306 39.8587 49.7857L44.0586 43.9173C44.6922 43.0325 44.6788 41.9948 44.0223 41.1176" fill="white"/>
</mask>
<g mask="url(#mask15_3633_25668)">
<path d="M36.1412 33.3493L28.748 48.2427L42.623 55.0043L50.0161 40.1109L36.1412 33.3493Z" fill="url(#paint9_linear_3633_25668)"/>
</g>
</g>
</g>
</g>
</g>
</g>
</g>
</g>
<text fill="#16233A" style="white-space: pre" xml:space="preserve" font-family="Poppins" font-size="13" font-weight="bold" letter-spacing="0px"><tspan x="66" y="37">Priori</tspan></text>
<text fill="#6B7688" style="white-space: pre" xml:space="preserve" font-family="Poppins" font-size="10" letter-spacing="0px"><tspan x="66" y="51">Technologies</tspan></text>
<path d="M26.25 103.5L27.75 102M27.75 102L33 96.75L38.25 102M27.75 102V109.5C27.75 109.699 27.829 109.89 27.9697 110.03C28.1103 110.171 28.3011 110.25 28.5 110.25H30.75M38.25 102L39.75 103.5M38.25 102V109.5C38.25 109.699 38.171 109.89 38.0303 110.03C37.8897 110.171 37.6989 110.25 37.5 110.25H35.25M30.75 110.25C30.9489 110.25 31.1397 110.171 31.2803 110.03C31.421 109.89 31.5 109.699 31.5 109.5V106.5C31.5 106.301 31.579 106.11 31.7197 105.97C31.8603 105.829 32.0511 105.75 32.25 105.75H33.75C33.9489 105.75 34.1397 105.829 34.2803 105.97C34.421 106.11 34.5 106.301 34.5 106.5V109.5C34.5 109.699 34.579 109.89 34.7197 110.03C34.8603 110.171 35.0511 110.25 35.25 110.25M30.75 110.25H35.25" stroke="#6B7688" stroke-width="1.2" stroke-linecap="round" stroke-linejoin="round"/>
<text fill="#6B7688" style="white-space: pre" xml:space="preserve" font-family="Poppins" font-size="13" font-weight="500" letter-spacing="0px"><tspan x="52" y="107.836">Dashboard</tspan></text>
<path d="M30.75 149.75V145.25C30.75 144.852 30.592 144.471 30.3107 144.189C30.0294 143.908 29.6478 143.75 29.25 143.75H27.75C27.3522 143.75 26.9706 143.908 26.6893 144.189C26.408 144.471 26.25 144.852 26.25 145.25V149.75C26.25 150.148 26.408 150.529 26.6893 150.811C26.9706 151.092 27.3522 151.25 27.75 151.25H29.25C29.6478 151.25 30.0294 151.092 30.3107 150.811C30.592 150.529 30.75 150.148 30.75 149.75ZM30.75 149.75V142.25C30.75 141.852 30.908 141.471 31.1893 141.189C31.4706 140.908 31.8522 140.75 32.25 140.75H33.75C34.1478 140.75 34.5294 140.908 34.8107 141.189C35.092 141.471 35.25 141.852 35.25 142.25V149.75M30.75 149.75C30.75 150.148 30.908 150.529 31.1893 150.811C31.4706 151.092 31.8522 151.25 32.25 151.25H33.75C34.1478 151.25 34.5294 151.092 34.8107 150.811C35.092 150.529 35.25 150.148 35.25 149.75M35.25 149.75V139.25C35.25 138.852 35.408 138.471 35.6893 138.189C35.9706 137.908 36.3522 137.75 36.75 137.75H38.25C38.6478 137.75 39.0294 137.908 39.3107 138.189C39.592 138.471 39.75 138.852 39.75 139.25V149.75C39.75 150.148 39.592 150.529 39.3107 150.811C39.0294 151.092 38.6478 151.25 38.25 151.25H36.75C36.3522 151.25 35.9706 151.092 35.6893 150.811C35.408 150.529 35.25 150.148 35.25 149.75Z" stroke="#6B7688" stroke-width="1.2" stroke-linecap="round" stroke-linejoin="round"/>
<text fill="#6B7688" style="white-space: pre" xml:space="preserve" font-family="Poppins" font-size="13" font-weight="500" letter-spacing="0px"><tspan x="52" y="148.836">Pipeline</tspan></text>
<path d="M38.25 192.25V180.25C38.25 179.852 38.092 179.471 37.8107 179.189C37.5294 178.908 37.1478 178.75 36.75 178.75H29.25C28.8522 178.75 28.4706 178.908 28.1893 179.189C27.908 179.471 27.75 179.852 27.75 180.25V192.25M38.25 192.25H39.75M38.25 192.25H34.5M27.75 192.25H26.25M27.75 192.25H31.5M34.5 192.25V188.5C34.5 188.301 34.421 188.11 34.2803 187.97C34.1397 187.829 33.9489 187.75 33.75 187.75H32.25C32.0511 187.75 31.8603 187.829 31.7197 187.97C31.579 188.11 31.5 188.301 31.5 188.5V192.25M34.5 192.25H31.5M30.75 181.75H31.5M30.75 184.75H31.5M34.5 181.75H35.25M34.5 184.75H35.25" stroke="#6B7688" stroke-width="1.2" stroke-linecap="round" stroke-linejoin="round"/>
<text fill="#6B7688" style="white-space: pre" xml:space="preserve" font-family="Poppins" font-size="13" font-weight="500" letter-spacing="0px"><tspan x="52" y="189.836">Companies</tspan></text>
<path d="M33 223.5V226.5L35.25 228.75M39.75 226.5C39.75 227.386 39.5754 228.264 39.2362 229.083C38.897 229.902 38.3998 230.646 37.773 231.273C37.1462 231.9 36.4021 232.397 35.5831 232.736C34.7642 233.075 33.8864 233.25 33 233.25C32.1136 233.25 31.2358 233.075 30.4169 232.736C29.5979 232.397 28.8538 231.9 28.227 231.273C27.6002 230.646 27.103 229.902 26.7638 229.083C26.4246 228.264 26.25 227.386 26.25 226.5C26.25 224.71 26.9612 222.993 28.227 221.727C29.4929 220.461 31.2098 219.75 33 219.75C34.7902 219.75 36.5071 220.461 37.773 221.727C39.0388 222.993 39.75 224.71 39.75 226.5Z" stroke="#6B7688" stroke-width="1.2" stroke-linecap="round" stroke-linejoin="round"/>
<text fill="#6B7688" style="white-space: pre" xml:space="preserve" font-family="Poppins" font-size="13" font-weight="500" letter-spacing="0px"><tspan x="52" y="230.836">Future pipeline</tspan></text>
<path d="M12 260C12 253.373 17.3726 248 24 248H215C221.627 248 227 253.373 227 260V275C227 281.627 221.627 287 215 287H24C17.3726 287 12 281.627 12 275V260Z" fill="#FBF0FB"/>
<path d="M30.75 263.75H35.25M35.25 271.25V269M33 271.25H33.0075M30.75 271.25H30.7575M30.75 266.75H30.7575M33 266.75H33.0075M35.25 266.75H35.2575M27 272.75H39C39.3978 272.75 39.7794 272.592 40.0607 272.311C40.342 272.029 40.5 271.648 40.5 271.25V263.75C40.5 263.352 40.342 262.971 40.0607 262.689C39.7794 262.408 39.3978 262.25 39 262.25H27C26.6022 262.25 26.2206 262.408 25.9393 262.689C25.658 262.971 25.5 263.352 25.5 263.75V271.25C25.5 271.648 25.658 272.029 25.9393 272.311C26.2206 272.592 26.6022 272.75 27 272.75Z" stroke="#912B90" stroke-width="1.2" stroke-linecap="round" stroke-linejoin="round"/>
<text fill="#912B90" style="white-space: pre" xml:space="preserve" font-family="Poppins" font-size="13" font-weight="500" letter-spacing="0px"><tspan x="52" y="271.836">Quotes &#38; pricing</tspan></text>
<path d="M30.75 308.5L32.25 310L35.25 307M39.75 308.5C39.75 309.386 39.5754 310.264 39.2362 311.083C38.897 311.902 38.3998 312.646 37.773 313.273C37.1462 313.9 36.4021 314.397 35.5831 314.736C34.7642 315.075 33.8864 315.25 33 315.25C32.1136 315.25 31.2358 315.075 30.4169 314.736C29.5979 314.397 28.8538 313.9 28.227 313.273C27.6002 312.646 27.103 311.902 26.7638 311.083C26.4246 310.264 26.25 309.386 26.25 308.5C26.25 306.71 26.9612 304.993 28.227 303.727C29.4929 302.461 31.2098 301.75 33 301.75C34.7902 301.75 36.5071 302.461 37.773 303.727C39.0388 304.993 39.75 306.71 39.75 308.5Z" stroke="#6B7688" stroke-width="1.2" stroke-linecap="round" stroke-linejoin="round"/>
<text fill="#6B7688" style="white-space: pre" xml:space="preserve" font-family="Poppins" font-size="13" font-weight="500" letter-spacing="0px"><tspan x="52" y="312.836">Onboarding</tspan></text>
<mask id="path-50-inside-2_3633_25668" fill="white">
<path d="M0 918H239V1024H0V918Z"/>
</mask>
<path d="M0 918V919H239V918V917H0V918Z" fill="#E4E8EF" mask="url(#path-50-inside-2_3633_25668)"/>
<path d="M16 950.5C16 942.768 22.268 936.5 30 936.5C37.732 936.5 44 942.768 44 950.5C44 958.232 37.732 964.5 30 964.5C22.268 964.5 16 958.232 16 950.5Z" fill="#912B90"/>
<text fill="white" style="white-space: pre" xml:space="preserve" font-family="Poppins" font-size="12" font-weight="bold" letter-spacing="0px"><tspan x="21" y="954.7">FM</tspan></text>
<text fill="#16233A" style="white-space: pre" xml:space="preserve" font-family="Poppins" font-size="12" font-weight="600" letter-spacing="0px"><tspan x="54" y="947.2">Frank Mueke</tspan></text>
<text fill="#6B7688" style="white-space: pre" xml:space="preserve" font-family="Poppins" font-size="10" letter-spacing="0px"><tspan x="54" y="962">Senior Admin</tspan></text>
<text fill="#6B7688" style="white-space: pre" xml:space="preserve" font-family="Poppins" font-size="10" letter-spacing="0px"><tspan x="16" y="989">&#xa9; 2026 Priori &#x2014; All Rights Reserved</tspan></text>
<text fill="#6B7688" style="white-space: pre" xml:space="preserve" font-family="Poppins" font-size="10" letter-spacing="0px"><tspan x="16" y="1004">Version: 1.0.188-288</tspan></text>
<mask id="path-58-inside-3_3633_25668" fill="white">
<path d="M240 0H1551V64H240V0Z"/>
</mask>
<path d="M240 0H1551V64H240V0Z" fill="white"/>
<path d="M1551 64V63H240V64V65H1551V64Z" fill="#E4E8EF" mask="url(#path-58-inside-3_3633_25668)"/>
<text fill="#16233A" style="white-space: pre" xml:space="preserve" font-family="Poppins" font-size="13" font-weight="600" letter-spacing="0px"><tspan x="264" y="35.8357">Quotes &#38; pricing</tspan></text>
<mask id="path-61-inside-4_3633_25668" fill="white">
<path d="M1232 28.5C1232 21.8726 1237.37 16.5 1244 16.5H1427C1433.63 16.5 1439 21.8726 1439 28.5V34.5C1439 41.1274 1433.63 46.5 1427 46.5H1244C1237.37 46.5 1232 41.1274 1232 34.5V28.5Z"/>
</mask>
<path d="M1232 28.5C1232 21.8726 1237.37 16.5 1244 16.5H1427C1433.63 16.5 1439 21.8726 1439 28.5V34.5C1439 41.1274 1433.63 46.5 1427 46.5H1244C1237.37 46.5 1232 41.1274 1232 34.5V28.5Z" fill="#F6F7F9"/>
<path d="M1244 16.5V17.5H1427V16.5V15.5H1244V16.5ZM1439 28.5H1438V34.5H1439H1440V28.5H1439ZM1427 46.5V45.5H1244V46.5V47.5H1427V46.5ZM1232 34.5H1233V28.5H1232H1231V34.5H1232ZM1244 46.5V45.5C1237.92 45.5 1233 40.5751 1233 34.5H1232H1231C1231 41.6797 1236.82 47.5 1244 47.5V46.5ZM1439 34.5H1438C1438 40.5751 1433.08 45.5 1427 45.5V46.5V47.5C1434.18 47.5 1440 41.6797 1440 34.5H1439ZM1427 16.5V17.5C1433.08 17.5 1438 22.4249 1438 28.5H1439H1440C1440 21.3203 1434.18 15.5 1427 15.5V16.5ZM1244 16.5V15.5C1236.82 15.5 1231 21.3203 1231 28.5H1232H1233C1233 22.4249 1237.92 17.5 1244 17.5V16.5Z" fill="#E4E8EF" mask="url(#path-61-inside-4_3633_25668)"/>
<g clip-path="url(#clip1_3633_25668)">
<path d="M1257.35 37.3499L1254.52 34.5224M1250.85 36.0499C1252.23 36.0499 1253.55 35.502 1254.53 34.5269C1255.5 33.5517 1256.05 32.229 1256.05 30.8499C1256.05 29.4708 1255.5 28.1481 1254.53 27.1729C1253.55 26.1978 1252.23 25.6499 1250.85 25.6499C1249.47 25.6499 1248.15 26.1978 1247.17 27.1729C1246.2 28.1481 1245.65 29.4708 1245.65 30.8499C1245.65 32.229 1246.2 33.5517 1247.17 34.5269C1248.15 35.502 1249.47 36.0499 1250.85 36.0499Z" stroke="#6B7688" stroke-width="0.975" stroke-linecap="round"/>
</g>
<g clip-path="url(#clip2_3633_25668)">
<text fill="#6B7688" style="white-space: pre" xml:space="preserve" font-family="Poppins" font-size="12" letter-spacing="0px"><tspan x="1266" y="35.7">Search companies, deals&#x2026;</tspan></text>
</g>
<mask id="path-65-inside-5_3633_25668" fill="white">
<path d="M1451 31.5C1451 22.6634 1458.16 15.5 1467 15.5C1475.84 15.5 1483 22.6634 1483 31.5C1483 40.3366 1475.84 47.5 1467 47.5C1458.16 47.5 1451 40.3366 1451 31.5Z"/>
</mask>
<path d="M1451 31.5C1451 22.6634 1458.16 15.5 1467 15.5C1475.84 15.5 1483 22.6634 1483 31.5C1483 40.3366 1475.84 47.5 1467 47.5C1458.16 47.5 1451 40.3366 1451 31.5Z" fill="#F6F7F9"/>
<path d="M1451 31.5M1483 31.5M1483 31.5M1451 31.5M1467 15.5M1483 31.5M1467 47.5M1451 31.5M1467 47.5V46.5C1458.72 46.5 1452 39.7843 1452 31.5H1451H1450C1450 40.8888 1457.61 48.5 1467 48.5V47.5ZM1483 31.5H1482C1482 39.7843 1475.28 46.5 1467 46.5V47.5V48.5C1476.39 48.5 1484 40.8888 1484 31.5H1483ZM1467 15.5V16.5C1475.28 16.5 1482 23.2157 1482 31.5H1483H1484C1484 22.1112 1476.39 14.5 1467 14.5V15.5ZM1467 15.5V14.5C1457.61 14.5 1450 22.1112 1450 31.5H1451H1452C1452 23.2157 1458.72 16.5 1467 16.5V15.5Z" fill="#E4E8EF" mask="url(#path-65-inside-5_3633_25668)"/>
<path d="M1468.75 34.4167H1471.67L1470.85 33.5971C1470.74 33.487 1470.65 33.3563 1470.59 33.2125C1470.53 33.0687 1470.5 32.9145 1470.5 32.7588V30.9167C1470.5 30.1927 1470.28 29.4865 1469.86 28.8954C1469.44 28.3042 1468.85 27.8571 1468.17 27.6156V27.4167C1468.17 27.1072 1468.04 26.8105 1467.83 26.5917C1467.61 26.3729 1467.31 26.25 1467 26.25C1466.69 26.25 1466.39 26.3729 1466.18 26.5917C1465.96 26.8105 1465.83 27.1072 1465.83 27.4167V27.6156C1464.47 28.0962 1463.5 29.393 1463.5 30.9167V32.7594C1463.5 33.0732 1463.38 33.3748 1463.15 33.5971L1462.33 34.4167H1465.25M1468.75 34.4167V35C1468.75 35.4641 1468.57 35.9092 1468.24 36.2374C1467.91 36.5656 1467.46 36.75 1467 36.75C1466.54 36.75 1466.09 36.5656 1465.76 36.2374C1465.44 35.9092 1465.25 35.4641 1465.25 35V34.4167M1468.75 34.4167H1465.25" stroke="#6B7688" stroke-width="0.875" stroke-linecap="round" stroke-linejoin="round"/>
<path d="M1495 31.5C1495 22.6634 1502.16 15.5 1511 15.5C1519.84 15.5 1527 22.6634 1527 31.5C1527 40.3366 1519.84 47.5 1511 47.5C1502.16 47.5 1495 40.3366 1495 31.5Z" fill="#912B90"/>
<text fill="white" style="white-space: pre" xml:space="preserve" font-family="Poppins" font-size="12" font-weight="bold" letter-spacing="0px"><tspan x="1502" y="35.7">FM</tspan></text>
<text fill="#16233A" style="white-space: pre" xml:space="preserve" font-family="Poppins" font-size="24" font-weight="bold" letter-spacing="0px"><tspan x="264" y="115.4">Quotes &#38; Pricing</tspan></text>
<path d="M1403 100C1403 93.3726 1408.37 88 1415 88H1515C1521.63 88 1527 93.3726 1527 100V111C1527 117.627 1521.63 123 1515 123H1415C1408.37 123 1403 117.627 1403 111V100Z" fill="#912B90"/>
<text fill="white" style="white-space: pre" xml:space="preserve" font-family="Poppins" font-size="16" font-weight="500" letter-spacing="0px"><tspan x="1419.29" y="111.1">+</tspan></text>
<text fill="white" style="white-space: pre" xml:space="preserve" font-family="Poppins" font-size="13" font-weight="500" letter-spacing="0px"><tspan x="1439.34" y="109.836">New Quote</tspan></text>
<g filter="url(#filter0_d_3633_25668)">
<g clip-path="url(#clip3_3633_25668)">
<mask id="path-74-inside-6_3633_25668" fill="white">
<path d="M264 159C264 150.163 271.163 143 280 143H1511C1519.84 143 1527 150.163 1527 159V365.852C1527 374.688 1519.84 381.852 1511 381.852H280C271.163 381.852 264 374.688 264 365.852V159Z"/>
</mask>
<path d="M264 159C264 150.163 271.163 143 280 143H1511C1519.84 143 1527 150.163 1527 159V365.852C1527 374.688 1519.84 381.852 1511 381.852H280C271.163 381.852 264 374.688 264 365.852V159Z" fill="white"/>
<mask id="path-76-inside-7_3633_25668" fill="white">
<path d="M265 144H1526V196H265V144Z"/>
</mask>
<path d="M1526 196V195H265V196V197H1526V196Z" fill="#E4E8EF" mask="url(#path-76-inside-7_3633_25668)"/>
<text fill="#16233A" style="white-space: pre" xml:space="preserve" font-family="Poppins" font-size="13" font-weight="600" letter-spacing="0px"><tspan x="285" y="173.836">Active quotes</tspan></text>
<mask id="path-79-inside-8_3633_25668" fill="white">
<path d="M265 196H1526V239.07H265V196Z"/>
</mask>
<path d="M265 196H1526V239.07H265V196Z" fill="#F6F7F9"/>
<path d="M1526 239.07V238.07H265V239.07V240.07H1526V239.07Z" fill="#E4E8EF" mask="url(#path-79-inside-8_3633_25668)"/>
<text fill="#16233A" style="white-space: pre" xml:space="preserve" font-family="Poppins" font-size="13" font-weight="600" letter-spacing="0px"><tspan x="285" y="222.836">Quote ID</tspan></text>
<text fill="#16233A" style="white-space: pre" xml:space="preserve" font-family="Poppins" font-size="13" font-weight="600" letter-spacing="0px"><tspan x="427.547" y="222.836">Company</tspan></text>
<text fill="#16233A" style="white-space: pre" xml:space="preserve" font-family="Poppins" font-size="13" font-weight="600" letter-spacing="0px"><tspan x="717.5" y="222.836">Profile</tspan></text>
<text fill="#16233A" style="white-space: pre" xml:space="preserve" font-family="Poppins" font-size="13" font-weight="600" letter-spacing="0px"><tspan x="851.688" y="222.836">Currency</tspan></text>
<text fill="#16233A" style="white-space: pre" xml:space="preserve" font-family="Poppins" font-size="13" font-weight="600" letter-spacing="0px"><tspan x="1001.9" y="222.836">Total (USD eq.)</tspan></text>
<text fill="#16233A" style="white-space: pre" xml:space="preserve" font-family="Poppins" font-size="13" font-weight="600" letter-spacing="0px"><tspan x="1207.21" y="222.836">Date</tspan></text>
<text fill="#16233A" style="white-space: pre" xml:space="preserve" font-family="Poppins" font-size="13" font-weight="600" letter-spacing="0px"><tspan x="1382.74" y="222.836">Status</tspan></text>
<mask id="path-88-inside-9_3633_25668" fill="white">
<path d="M265 239.07H1526V286.641H265V239.07Z"/>
</mask>
<path d="M1526 286.641V285.641H265V286.641V287.641H1526V286.641Z" fill="#E4E8EF" mask="url(#path-88-inside-9_3633_25668)"/>
<text fill="#912B90" style="white-space: pre" xml:space="preserve" font-family="Menlo" font-size="13" font-weight="bold" letter-spacing="0px"><tspan x="285" y="266.857">Q-2031</tspan></text>
<text fill="#16233A" style="white-space: pre" xml:space="preserve" font-family="Poppins" font-size="13" font-weight="500" letter-spacing="0px"><tspan x="427.547" y="268.406">Baraka Logistics</tspan></text>
<text fill="#6B7688" style="white-space: pre" xml:space="preserve" font-family="Menlo" font-size="12" letter-spacing="0px"><tspan x="717.5" y="267.006">BAR-USD</tspan></text>
<path d="M851.688 262.82C851.688 257.159 856.277 252.57 861.938 252.57H881.719C887.38 252.57 891.969 257.159 891.969 262.82C891.969 268.481 887.38 273.07 881.719 273.07H861.938C856.277 273.07 851.688 268.481 851.688 262.82Z" fill="#EBF0FF"/>
<text fill="#2456E6" style="white-space: pre" xml:space="preserve" font-family="Poppins" font-size="12" font-weight="600" letter-spacing="0px"><tspan x="859.688" y="267.77">USD</tspan></text>
<text fill="#16233A" style="white-space: pre" xml:space="preserve" font-family="Poppins" font-size="13" font-weight="600" letter-spacing="0px"><tspan x="1001.9" y="268.406">$10,930</tspan></text>
<text fill="#6B7688" style="white-space: pre" xml:space="preserve" font-family="Poppins" font-size="13" letter-spacing="0px"><tspan x="1207.21" y="268.406">2026-08-06</tspan></text>
<path d="M1382.74 262.82C1382.74 257.159 1387.33 252.57 1392.99 252.57H1437.76C1443.42 252.57 1448.01 257.159 1448.01 262.82C1448.01 268.481 1443.42 273.07 1437.76 273.07H1392.99C1387.33 273.07 1382.74 268.481 1382.74 262.82Z" fill="#E6F5EB"/>
<text fill="#0F7A38" style="white-space: pre" xml:space="preserve" font-family="Poppins" font-size="12" font-weight="600" letter-spacing="0px"><tspan x="1392.74" y="267.77">Synced</tspan></text>
<mask id="path-99-inside-10_3633_25668" fill="white">
<path d="M265 286.641H1526V334.211H265V286.641Z"/>
</mask>
<path d="M1526 334.211V333.211H265V334.211V335.211H1526V334.211Z" fill="#E4E8EF" mask="url(#path-99-inside-10_3633_25668)"/>
<text fill="#912B90" style="white-space: pre" xml:space="preserve" font-family="Menlo" font-size="13" font-weight="bold" letter-spacing="0px"><tspan x="285" y="314.427">Q-2032</tspan></text>
<text fill="#16233A" style="white-space: pre" xml:space="preserve" font-family="Poppins" font-size="13" font-weight="500" letter-spacing="0px"><tspan x="427.547" y="315.976">Savannah Microfinance</tspan></text>
<text fill="#6B7688" style="white-space: pre" xml:space="preserve" font-family="Menlo" font-size="12" letter-spacing="0px"><tspan x="717.5" y="314.576">SAV-KES</tspan></text>
<path d="M851.688 310.391C851.688 304.73 856.277 300.141 861.938 300.141H879.086C884.747 300.141 889.336 304.73 889.336 310.391C889.336 316.052 884.747 320.641 879.086 320.641H861.938C856.277 320.641 851.688 316.052 851.688 310.391Z" fill="#EBF0FF"/>
<text fill="#2456E6" style="white-space: pre" xml:space="preserve" font-family="Poppins" font-size="12" font-weight="600" letter-spacing="0px"><tspan x="859.688" y="315.341">KES</tspan></text>
<text fill="#16233A" style="white-space: pre" xml:space="preserve" font-family="Poppins" font-size="13" font-weight="600" letter-spacing="0px"><tspan x="1001.9" y="315.976">$51,840</tspan></text>
<text fill="#6B7688" style="white-space: pre" xml:space="preserve" font-family="Poppins" font-size="13" letter-spacing="0px"><tspan x="1207.21" y="315.976">2026-08-08</tspan></text>
<path d="M1382.74 310.391C1382.74 304.73 1387.33 300.141 1392.99 300.141H1422.88C1428.54 300.141 1433.13 304.73 1433.13 310.391C1433.13 316.052 1428.54 320.641 1422.88 320.641H1392.99C1387.33 320.641 1382.74 316.052 1382.74 310.391Z" fill="#F3F4F6"/>
<text fill="#6B7688" style="white-space: pre" xml:space="preserve" font-family="Poppins" font-size="12" font-weight="600" letter-spacing="0px"><tspan x="1392.74" y="315.341">Draft</tspan></text>
<text fill="#912B90" style="white-space: pre" xml:space="preserve" font-family="Menlo" font-size="13" font-weight="bold" letter-spacing="0px"><tspan x="285" y="361.997">Q-2033</tspan></text>
<text fill="#16233A" style="white-space: pre" xml:space="preserve" font-family="Poppins" font-size="13" font-weight="500" letter-spacing="0px"><tspan x="427.547" y="363.547">Kilifi Beach Resorts</tspan></text>
<text fill="#6B7688" style="white-space: pre" xml:space="preserve" font-family="Menlo" font-size="12" letter-spacing="0px"><tspan x="717.5" y="362.146">KIL-USD</tspan></text>
<path d="M851.688 357.961C851.688 352.3 856.277 347.711 861.938 347.711H881.719C887.38 347.711 891.969 352.3 891.969 357.961C891.969 363.622 887.38 368.211 881.719 368.211H861.938C856.277 368.211 851.688 363.622 851.688 357.961Z" fill="#EBF0FF"/>
<text fill="#2456E6" style="white-space: pre" xml:space="preserve" font-family="Poppins" font-size="12" font-weight="600" letter-spacing="0px"><tspan x="859.688" y="362.911">USD</tspan></text>
<text fill="#16233A" style="white-space: pre" xml:space="preserve" font-family="Poppins" font-size="13" font-weight="600" letter-spacing="0px"><tspan x="1001.9" y="363.547">$5,760</tspan></text>
<text fill="#6B7688" style="white-space: pre" xml:space="preserve" font-family="Poppins" font-size="13" letter-spacing="0px"><tspan x="1207.21" y="363.547">2026-08-09</tspan></text>
<path d="M1382.74 357.961C1382.74 352.3 1387.33 347.711 1392.99 347.711H1442.67C1448.33 347.711 1452.92 352.3 1452.92 357.961C1452.92 363.622 1448.33 368.211 1442.67 368.211H1392.99C1387.33 368.211 1382.74 363.622 1382.74 357.961Z" fill="#FBF1DE"/>
<text fill="#B45309" style="white-space: pre" xml:space="preserve" font-family="Poppins" font-size="12" font-weight="600" letter-spacing="0px"><tspan x="1392.74" y="362.911">Pending</tspan></text>
</g>
<path d="M280 143V144H1511V143V142H280V143ZM1527 159H1526V365.852H1527H1528V159H1527ZM1511 381.852V380.852H280V381.852V382.852H1511V381.852ZM264 365.852H265V159H264H263V365.852H264ZM280 381.852V380.852C271.716 380.852 265 374.136 265 365.852H264H263C263 375.24 270.611 382.852 280 382.852V381.852ZM1527 365.852H1526C1526 374.136 1519.28 380.852 1511 380.852V381.852V382.852C1520.39 382.852 1528 375.24 1528 365.852H1527ZM1511 143V144C1519.28 144 1526 150.716 1526 159H1527H1528C1528 149.611 1520.39 142 1511 142V143ZM280 143V142C270.611 142 263 149.611 263 159H264H265C265 150.716 271.716 144 280 144V143Z" fill="#E4E8EF" mask="url(#path-74-inside-6_3633_25668)"/>
</g>
<g filter="url(#filter1_d_3633_25668)">
<mask id="path-119-inside-11_3633_25668" fill="white">
<path d="M264 417.852C264 409.015 271.163 401.852 280 401.852H1511C1519.84 401.852 1527 409.015 1527 417.852V830.555C1527 839.391 1519.84 846.555 1511 846.555H280C271.163 846.555 264 839.391 264 830.555V417.852Z"/>
</mask>
<path d="M264 417.852C264 409.015 271.163 401.852 280 401.852H1511C1519.84 401.852 1527 409.015 1527 417.852V830.555C1527 839.391 1519.84 846.555 1511 846.555H280C271.163 846.555 264 839.391 264 830.555V417.852Z" fill="white"/>
<path d="M280 401.852V402.852H1511V401.852V400.852H280V401.852ZM1527 417.852H1526V830.555H1527H1528V417.852H1527ZM1511 846.555V845.555H280V846.555V847.555H1511V846.555ZM264 830.555H265V417.852H264H263V830.555H264ZM280 846.555V845.555C271.716 845.555 265 838.839 265 830.555H264H263C263 839.944 270.611 847.555 280 847.555V846.555ZM1527 830.555H1526C1526 838.839 1519.28 845.555 1511 845.555V846.555V847.555C1520.39 847.555 1528 839.944 1528 830.555H1527ZM1511 401.852V402.852C1519.28 402.852 1526 409.567 1526 417.852H1527H1528C1528 408.463 1520.39 400.852 1511 400.852V401.852ZM280 401.852V400.852C270.611 400.852 263 408.463 263 417.852H264H265C265 409.567 271.716 402.852 280 402.852V401.852Z" fill="#E4E8EF" mask="url(#path-119-inside-11_3633_25668)"/>
<mask id="path-121-inside-12_3633_25668" fill="white">
<path d="M265 402.852H1526V454.852H265V402.852Z"/>
</mask>
<path d="M1526 454.852V453.852H265V454.852V455.852H1526V454.852Z" fill="#E4E8EF" mask="url(#path-121-inside-12_3633_25668)"/>
<text fill="#16233A" style="white-space: pre" xml:space="preserve" font-family="Poppins" font-size="13" font-weight="600" letter-spacing="0px"><tspan x="285" y="432.687">Microsoft 365 &#x2014; list prices (USD/seat/month)</tspan></text>
<mask id="path-124-inside-13_3633_25668" fill="white">
<path d="M265 454.852H1526V497.922H265V454.852Z"/>
</mask>
<path d="M265 454.852H1526V497.922H265V454.852Z" fill="#F6F7F9"/>
<path d="M1526 497.922V496.922H265V497.922V498.922H1526V497.922Z" fill="#E4E8EF" mask="url(#path-124-inside-13_3633_25668)"/>
<text fill="#16233A" style="white-space: pre" xml:space="preserve" font-family="Poppins" font-size="13" font-weight="600" letter-spacing="0px"><tspan x="285" y="481.687">Product</tspan></text>
<text fill="#16233A" style="white-space: pre" xml:space="preserve" font-family="Poppins" font-size="13" font-weight="600" letter-spacing="0px"><tspan x="787.445" y="481.687">Monthly / seat</tspan></text>
<text fill="#16233A" style="white-space: pre" xml:space="preserve" font-family="Poppins" font-size="13" font-weight="600" letter-spacing="0px"><tspan x="1055.23" y="481.687">Annual / seat</tspan></text>
<text fill="#16233A" style="white-space: pre" xml:space="preserve" font-family="Poppins" font-size="13" font-weight="600" letter-spacing="0px"><tspan x="1310.78" y="481.687">10-seat ARR</tspan></text>
<mask id="path-130-inside-14_3633_25668" fill="white">
<path d="M265 497.922H1526V541.492H265V497.922Z"/>
</mask>
<path d="M1526 541.492V540.492H265V541.492V542.492H1526V541.492Z" fill="#E4E8EF" mask="url(#path-130-inside-14_3633_25668)"/>
<text fill="#16233A" style="white-space: pre" xml:space="preserve" font-family="Poppins" font-size="13" font-weight="500" letter-spacing="0px"><tspan x="285" y="525.258">Microsoft 365 Business Basic</tspan></text>
<text fill="#6B7688" style="white-space: pre" xml:space="preserve" font-family="Poppins" font-size="13" letter-spacing="0px"><tspan x="787.445" y="525.258">$6.00</tspan></text>
<text fill="#6B7688" style="white-space: pre" xml:space="preserve" font-family="Poppins" font-size="13" letter-spacing="0px"><tspan x="1055.23" y="525.258">$72.00</tspan></text>
<text fill="#16233A" style="white-space: pre" xml:space="preserve" font-family="Poppins" font-size="13" font-weight="600" letter-spacing="0px"><tspan x="1310.78" y="525.258">$720</tspan></text>
<mask id="path-136-inside-15_3633_25668" fill="white">
<path d="M265 541.492H1526V585.062H265V541.492Z"/>
</mask>
<path d="M1526 585.062V584.062H265V585.062V586.062H1526V585.062Z" fill="#E4E8EF" mask="url(#path-136-inside-15_3633_25668)"/>
<text fill="#16233A" style="white-space: pre" xml:space="preserve" font-family="Poppins" font-size="13" font-weight="500" letter-spacing="0px"><tspan x="285" y="568.828">Microsoft 365 Business Standard</tspan></text>
<text fill="#6B7688" style="white-space: pre" xml:space="preserve" font-family="Poppins" font-size="13" letter-spacing="0px"><tspan x="787.445" y="568.828">$12.50</tspan></text>
<text fill="#6B7688" style="white-space: pre" xml:space="preserve" font-family="Poppins" font-size="13" letter-spacing="0px"><tspan x="1055.23" y="568.828">$150.00</tspan></text>
<text fill="#16233A" style="white-space: pre" xml:space="preserve" font-family="Poppins" font-size="13" font-weight="600" letter-spacing="0px"><tspan x="1310.78" y="568.828">$1,500</tspan></text>
<mask id="path-142-inside-16_3633_25668" fill="white">
<path d="M265 585.062H1526V628.633H265V585.062Z"/>
</mask>
<path d="M1526 628.633V627.633H265V628.633V629.633H1526V628.633Z" fill="#E4E8EF" mask="url(#path-142-inside-16_3633_25668)"/>
<text fill="#16233A" style="white-space: pre" xml:space="preserve" font-family="Poppins" font-size="13" font-weight="500" letter-spacing="0px"><tspan x="285" y="612.398">Microsoft 365 Business Premium</tspan></text>
<text fill="#6B7688" style="white-space: pre" xml:space="preserve" font-family="Poppins" font-size="13" letter-spacing="0px"><tspan x="787.445" y="612.398">$22.00</tspan></text>
<text fill="#6B7688" style="white-space: pre" xml:space="preserve" font-family="Poppins" font-size="13" letter-spacing="0px"><tspan x="1055.23" y="612.398">$264.00</tspan></text>
<text fill="#16233A" style="white-space: pre" xml:space="preserve" font-family="Poppins" font-size="13" font-weight="600" letter-spacing="0px"><tspan x="1310.78" y="612.398">$2,640</tspan></text>
<mask id="path-148-inside-17_3633_25668" fill="white">
<path d="M265 628.633H1526V672.203H265V628.633Z"/>
</mask>
<path d="M1526 672.203V671.203H265V672.203V673.203H1526V672.203Z" fill="#E4E8EF" mask="url(#path-148-inside-17_3633_25668)"/>
<text fill="#16233A" style="white-space: pre" xml:space="preserve" font-family="Poppins" font-size="13" font-weight="500" letter-spacing="0px"><tspan x="285" y="655.969">Microsoft 365 E3</tspan></text>
<text fill="#6B7688" style="white-space: pre" xml:space="preserve" font-family="Poppins" font-size="13" letter-spacing="0px"><tspan x="787.445" y="655.969">$36.00</tspan></text>
<text fill="#6B7688" style="white-space: pre" xml:space="preserve" font-family="Poppins" font-size="13" letter-spacing="0px"><tspan x="1055.23" y="655.969">$432.00</tspan></text>
<text fill="#16233A" style="white-space: pre" xml:space="preserve" font-family="Poppins" font-size="13" font-weight="600" letter-spacing="0px"><tspan x="1310.78" y="655.969">$4,320</tspan></text>
<mask id="path-154-inside-18_3633_25668" fill="white">
<path d="M265 672.203H1526V715.773H265V672.203Z"/>
</mask>
<path d="M1526 715.773V714.773H265V715.773V716.773H1526V715.773Z" fill="#E4E8EF" mask="url(#path-154-inside-18_3633_25668)"/>
<text fill="#16233A" style="white-space: pre" xml:space="preserve" font-family="Poppins" font-size="13" font-weight="500" letter-spacing="0px"><tspan x="285" y="699.539">Microsoft 365 E5</tspan></text>
<text fill="#6B7688" style="white-space: pre" xml:space="preserve" font-family="Poppins" font-size="13" letter-spacing="0px"><tspan x="787.445" y="699.539">$57.00</tspan></text>
<text fill="#6B7688" style="white-space: pre" xml:space="preserve" font-family="Poppins" font-size="13" letter-spacing="0px"><tspan x="1055.23" y="699.539">$684.00</tspan></text>
<text fill="#16233A" style="white-space: pre" xml:space="preserve" font-family="Poppins" font-size="13" font-weight="600" letter-spacing="0px"><tspan x="1310.78" y="699.539">$6,840</tspan></text>
<mask id="path-160-inside-19_3633_25668" fill="white">
<path d="M265 715.773H1526V759.344H265V715.773Z"/>
</mask>
<path d="M1526 759.344V758.344H265V759.344V760.344H1526V759.344Z" fill="#E4E8EF" mask="url(#path-160-inside-19_3633_25668)"/>
<text fill="#16233A" style="white-space: pre" xml:space="preserve" font-family="Poppins" font-size="13" font-weight="500" letter-spacing="0px"><tspan x="285" y="743.109">Exchange Online Plan 1</tspan></text>
<text fill="#6B7688" style="white-space: pre" xml:space="preserve" font-family="Poppins" font-size="13" letter-spacing="0px"><tspan x="787.445" y="743.109">$4.00</tspan></text>
<text fill="#6B7688" style="white-space: pre" xml:space="preserve" font-family="Poppins" font-size="13" letter-spacing="0px"><tspan x="1055.23" y="743.109">$48.00</tspan></text>
<text fill="#16233A" style="white-space: pre" xml:space="preserve" font-family="Poppins" font-size="13" font-weight="600" letter-spacing="0px"><tspan x="1310.78" y="743.109">$480</tspan></text>
<mask id="path-166-inside-20_3633_25668" fill="white">
<path d="M265 759.344H1526V802.914H265V759.344Z"/>
</mask>
<path d="M1526 802.914V801.914H265V802.914V803.914H1526V802.914Z" fill="#E4E8EF" mask="url(#path-166-inside-20_3633_25668)"/>
<text fill="#16233A" style="white-space: pre" xml:space="preserve" font-family="Poppins" font-size="13" font-weight="500" letter-spacing="0px"><tspan x="285" y="786.679">Teams Phone Standard</tspan></text>
<text fill="#6B7688" style="white-space: pre" xml:space="preserve" font-family="Poppins" font-size="13" letter-spacing="0px"><tspan x="787.445" y="786.679">$8.00</tspan></text>
<text fill="#6B7688" style="white-space: pre" xml:space="preserve" font-family="Poppins" font-size="13" letter-spacing="0px"><tspan x="1055.23" y="786.679">$96.00</tspan></text>
<text fill="#16233A" style="white-space: pre" xml:space="preserve" font-family="Poppins" font-size="13" font-weight="600" letter-spacing="0px"><tspan x="1310.78" y="786.679">$960</tspan></text>
<text fill="#16233A" style="white-space: pre" xml:space="preserve" font-family="Poppins" font-size="13" font-weight="500" letter-spacing="0px"><tspan x="285" y="830.25">Copilot for Microsoft 365</tspan></text>
<text fill="#6B7688" style="white-space: pre" xml:space="preserve" font-family="Poppins" font-size="13" letter-spacing="0px"><tspan x="787.445" y="830.25">$30.00</tspan></text>
<text fill="#6B7688" style="white-space: pre" xml:space="preserve" font-family="Poppins" font-size="13" letter-spacing="0px"><tspan x="1055.23" y="830.25">$360.00</tspan></text>
<text fill="#16233A" style="white-space: pre" xml:space="preserve" font-family="Poppins" font-size="13" font-weight="600" letter-spacing="0px"><tspan x="1310.78" y="830.25">$3,600</tspan></text>
</g>
<defs>
<filter id="filter0_d_3633_25668" x="261" y="141" width="1269" height="244.852" filterUnits="userSpaceOnUse" color-interpolation-filters="sRGB">
<feFlood flood-opacity="0" result="BackgroundImageFix"/>
<feColorMatrix in="SourceAlpha" type="matrix" values="0 0 0 0 0 0 0 0 0 0 0 0 0 0 0 0 0 0 127 0" result="hardAlpha"/>
<feOffset dy="1"/>
<feGaussianBlur stdDeviation="1.5"/>
<feComposite in2="hardAlpha" operator="out"/>
<feColorMatrix type="matrix" values="0 0 0 0 0 0 0 0 0 0 0 0 0 0 0 0 0 0 0.06 0"/>
<feBlend mode="normal" in2="BackgroundImageFix" result="effect1_dropShadow_3633_25668"/>
<feBlend mode="normal" in="SourceGraphic" in2="effect1_dropShadow_3633_25668" result="shape"/>
</filter>
<filter id="filter1_d_3633_25668" x="261" y="399.852" width="1269" height="450.703" filterUnits="userSpaceOnUse" color-interpolation-filters="sRGB">
<feFlood flood-opacity="0" result="BackgroundImageFix"/>
<feColorMatrix in="SourceAlpha" type="matrix" values="0 0 0 0 0 0 0 0 0 0 0 0 0 0 0 0 0 0 127 0" result="hardAlpha"/>
<feOffset dy="1"/>
<feGaussianBlur stdDeviation="1.5"/>
<feComposite in2="hardAlpha" operator="out"/>
<feColorMatrix type="matrix" values="0 0 0 0 0 0 0 0 0 0 0 0 0 0 0 0 0 0 0.06 0"/>
<feBlend mode="normal" in2="BackgroundImageFix" result="effect1_dropShadow_3633_25668"/>
<feBlend mode="normal" in="SourceGraphic" in2="effect1_dropShadow_3633_25668" result="shape"/>
</filter>
<linearGradient id="paint0_linear_3633_25668" x1="38.8484" y1="41.5518" x2="55.3451" y2="41.5518" gradientUnits="userSpaceOnUse">
<stop stop-color="#3E1856"/>
<stop offset="1" stop-color="#C3509D"/>
</linearGradient>
<linearGradient id="paint1_linear_3633_25668" x1="46.0159" y1="40.0044" x2="53.338" y2="50.1609" gradientUnits="userSpaceOnUse">
<stop stop-color="#6B6C6C"/>
<stop offset="1" stop-color="#F7F8F8"/>
</linearGradient>
<linearGradient id="paint2_linear_3633_25668" x1="44.725" y1="50.2124" x2="44.725" y2="31.7697" gradientUnits="userSpaceOnUse">
<stop stop-color="#3E1856"/>
<stop offset="1" stop-color="#C3509D"/>
</linearGradient>
<linearGradient id="paint3_linear_3633_25668" x1="38.2344" y1="40.8221" x2="49.8441" y2="40.8221" gradientUnits="userSpaceOnUse">
<stop stop-color="#6B6C6C"/>
<stop offset="1" stop-color="#F7F8F8"/>
</linearGradient>
<linearGradient id="paint4_linear_3633_25668" x1="51.667" y1="41.1775" x2="38.597" y2="34.6895" gradientUnits="userSpaceOnUse">
<stop stop-color="#6B6C6C"/>
<stop offset="1" stop-color="#F7F8F8"/>
</linearGradient>
<linearGradient id="paint5_linear_3633_25668" x1="24.4085" y1="38.7057" x2="44.5019" y2="38.7057" gradientUnits="userSpaceOnUse">
<stop stop-color="#DE3293"/>
<stop offset="1" stop-color="#263979"/>
</linearGradient>
<linearGradient id="paint6_linear_3633_25668" x1="24.333" y1="32.6424" x2="38.7849" y2="41.3753" gradientUnits="userSpaceOnUse">
<stop stop-color="#DE3293"/>
<stop offset="1" stop-color="#263979"/>
</linearGradient>
<linearGradient id="paint7_linear_3633_25668" x1="37.4967" y1="49.9558" x2="37.4967" y2="27.4645" gradientUnits="userSpaceOnUse">
<stop stop-color="#DE3293"/>
<stop offset="1" stop-color="#263979"/>
</linearGradient>
<linearGradient id="paint8_linear_3633_25668" x1="37.2457" y1="39.5112" x2="48.935" y2="43.3308" gradientUnits="userSpaceOnUse">
<stop stop-color="#DE3293"/>
<stop offset="1" stop-color="#263979"/>
</linearGradient>
<linearGradient id="paint9_linear_3633_25668" x1="29.9179" y1="39.5542" x2="45.8569" y2="47.4664" gradientUnits="userSpaceOnUse">
<stop stop-color="#DE3293"/>
<stop offset="1" stop-color="#263979"/>
</linearGradient>
<clipPath id="clip0_3633_25668">
<rect width="32" height="26" fill="white" transform="translate(24 26)"/>
</clipPath>
<clipPath id="clip1_3633_25668">
<rect width="13" height="13" fill="white" transform="translate(1245 25)"/>
</clipPath>
<clipPath id="clip2_3633_25668">
<rect width="160" height="16" fill="white" transform="translate(1266 23.5)"/>
</clipPath>
<clipPath id="clip3_3633_25668">
<path d="M264 159C264 150.163 271.163 143 280 143H1511C1519.84 143 1527 150.163 1527 159V365.852C1527 374.688 1519.84 381.852 1511 381.852H280C271.163 381.852 264 374.688 264 365.852V159Z" fill="white"/>
</clipPath>
</defs>
</svg>
